# xmcd CD database file
#
# Track frame offsets:
#	187
#	17790
#	37625
#	79742
#	98237
#	112900
#	143130
#	165115
#	200590
#
# Disc length: 3992 seconds
#
# Revision: 0
# Processed by: cddbd v1.4PL0 Copyright (c) Steve Scherf et al.
# Submitted via: CDex 1.50
#
DISCID=600f9609
DTITLE=Thelonious Monk - Thelonious Himself
DYEAR=1957
DGENRE=Jazz
TTITLE0=April In Paris
TTITLE1=(I Don't Stand)A Ghost Of A Chance With You
TTITLE2=Functional
TTITLE3=I'm Getting Sentimental ver You
TTITLE4=I Should Care
TTITLE5='Round Midnight
TTITLE6=All Alone
TTITLE7=Monk's Mood
TTITLE8='Round Midnight(in progress)
EXTD=YEAR: 1957
EXTT0=
EXTT1=
EXTT2=
EXTT3=
EXTT4=
EXTT5=
EXTT6=
EXTT7=
EXTT8=
PLAYORDER=
